<svg aria-hidden="true" style="position: absolute; width: 0; height: 0; overflow: hidden;" version="1.1" xmlns="http://www.w3.org/2000/svg" xmlns:xlink="http://www.w3.org/1999/xlink">
<defs>
<symbol id="icon-facebook" viewBox="0 0 20 20">
<path d="M17 1h-14c-1.1 0-2 0.9-2 2v14c0 1.101 0.9 2 2 2h7v-7h-2v-2.475h2v-2.050c0-2.164 1.212-3.684 3.766-3.684l1.803 0.002v2.605h-1.197c-0.994 0-1.372 0.746-1.372 1.438v1.69h2.568l-0.568 2.474h-2v7h4c1.1 0 2-0.899 2-2v-14c0-1.1-0.9-2-2-2z"></path>
</symbol>
<symbol id="icon-mail" viewBox="0 0 50 50">
    <path d="M 0 7 L 0 9.78125 C 3.012 12.40325 20.28925 27.46425 21.65625 28.65625 C 23.06225 29.88125 24.466 30 25 30 C 25.534 30 26.93775 29.88125 28.34375 28.65625 C 29.76175 27.42025 48.046 11.48225 50 9.78125 L 50 7 L 0 7 z M 0 12.4375 L 0 37.53125 L 15.125 25.59375 C 10.224 21.32675 3.231 15.2505 0 12.4375 z M 50 12.4375 C 46.949 15.0925 39.846 21.26675 34.875 25.59375 L 50 37.5 L 50 12.4375 z M 16.65625 26.9375 L 0 40.0625 L 0 43 L 50 43 L 50 40.03125 L 33.34375 26.9375 C 31.40675 28.6235 30.01025 29.84725 29.65625 30.15625 C 27.73925 31.82525 25.759 32 25 32 C 24.241 32 22.26075 31.82625 20.34375 30.15625 C 19.99275 29.85025 18.59725 28.6275 16.65625 26.9375 z"/>
</symbol>
<symbol id="icon-phone" viewBox="0 0 24 24">
<path d="M17.016 18.984v-13.969h-10.031v13.969h10.031zM17.016 1.031q0.797 0 1.383 0.586t0.586 1.383v18q0 0.797-0.586 1.406t-1.383 0.609h-10.031q-0.797 0-1.383-0.609t-0.586-1.406v-18q0-0.797 0.586-1.406t1.383-0.609z"></path>
</symbol>
</defs>
</svg>