<svg aria-hidden="true" style="position: absolute; width: 0; height: 0; overflow: hidden;" version="1.1" xmlns="http://www.w3.org/2000/svg" xmlns:xlink="http://www.w3.org/1999/xlink">
<defs>
<symbol id="icon-facebook" viewBox="0 0 20 20">
<path d="M17 1h-14c-1.1 0-2 0.9-2 2v14c0 1.101 0.9 2 2 2h7v-7h-2v-2.475h2v-2.050c0-2.164 1.212-3.684 3.766-3.684l1.803 0.002v2.605h-1.197c-0.994 0-1.372 0.746-1.372 1.438v1.69h2.568l-0.568 2.474h-2v7h4c1.1 0 2-0.899 2-2v-14c0-1.1-0.9-2-2-2z"></path>
</symbol>
<symbol id="icon-mail" viewBox="0 0 50 50">
    <path d="M 0 7 L 0 9.78125 C 3.012 12.40325 20.28925 27.46425 21.65625 28.65625 C 23.06225 29.88125 24.466 30 25 30 C 25.534 30 26.93775 29.88125 28.34375 28.65625 C 29.76175 27.42025 48.046 11.48225 50 9.78125 L 50 7 L 0 7 z M 0 12.4375 L 0 37.53125 L 15.125 25.59375 C 10.224 21.32675 3.231 15.2505 0 12.4375 z M 50 12.4375 C 46.949 15.0925 39.846 21.26675 34.875 25.59375 L 50 37.5 L 50 12.4375 z M 16.65625 26.9375 L 0 40.0625 L 0 43 L 50 43 L 50 40.03125 L 33.34375 26.9375 C 31.40675 28.6235 30.01025 29.84725 29.65625 30.15625 C 27.73925 31.82525 25.759 32 25 32 C 24.241 32 22.26075 31.82625 20.34375 30.15625 C 19.99275 29.85025 18.59725 28.6275 16.65625 26.9375 z"/>
</symbol>
<symbol id="icon-phone" viewBox="0 0 24 24">
<path d="M17.016 18.984v-13.969h-10.031v13.969h10.031zM17.016 1.031q0.797 0 1.383 0.586t0.586 1.383v18q0 0.797-0.586 1.406t-1.383 0.609h-10.031q-0.797 0-1.383-0.609t-0.586-1.406v-18q0-0.797 0.586-1.406t1.383-0.609z"></path>
</symbol>
<symbol xmlns="http://www.w3.org/2000/svg" viewBox="0 0 24 24" id="icon-instagram">
    <path d="M12 2.163c3.204 0 3.584.012 4.85.07 3.252.148 4.771 1.691 4.919 4.919.058 1.265.069 1.645.069 4.849 0 3.205-.012 3.584-.069 4.849-.149 3.225-1.664 4.771-4.919 4.919-1.266.058-1.644.07-4.85.07-3.204 0-3.584-.012-4.849-.07-3.26-.149-4.771-1.699-4.919-4.92-.058-1.265-.07-1.644-.07-4.849 0-3.204.013-3.583.07-4.849.149-3.227 1.664-4.771 4.919-4.919 1.266-.057 1.645-.069 4.849-.069zM12 0C8.741 0 8.333.014 7.053.072 2.695.272.273 2.69.073 7.052.014 8.333 0 8.741 0 12c0 3.259.014 3.668.072 4.948.2 4.358 2.618 6.78 6.98 6.98C8.333 23.986 8.741 24 12 24c3.259 0 3.668-.014 4.948-.072 4.354-.2 6.782-2.618 6.979-6.98.059-1.28.073-1.689.073-4.948 0-3.259-.014-3.667-.072-4.947-.196-4.354-2.617-6.78-6.979-6.98C15.668.014 15.259 0 12 0zm0 5.838a6.162 6.162 0 1 0 0 12.324 6.162 6.162 0 0 0 0-12.324zM12 16a4 4 0 1 1 0-8 4 4 0 0 1 0 8zm6.406-11.845a1.44 1.44 0 1 0 0 2.881 1.44 1.44 0 0 0 0-2.881z"></path>
  </symbol>
  <symbol version="1" xmlns="http://www.w3.org/2000/svg" viewBox="0 0 185 186" id="back-arrow">
    <path d="M80 4.9C80 6 86.9 11 88.3 11c3.2 0 20.5 16.9 25.3 24.5 5.2 8.3 8.1 13.8 9.3 17.6.6 2 2 5.3 3.1 7.4 2.3 4.6 2.5 9 .6 16-3.7 13.8-11.8 21.5-28 26.4-9.7 3-10.7 2.9-10-1.2.4-1.7 1.7-6.3 3-10.1l2.4-6.8-3.1-3.7c-1.8-2-3.7-3.9-4.3-4.3-.7-.4-4.8 2.9-9.6 7.5-4.7 4.5-10.3 9.3-12.5 10.7-2.1 1.3-4.7 3.2-5.7 4.2-.9.9-3.4 2.6-5.5 3.7-2.1 1-4.9 3-6.3 4.4-1.4 1.3-3.5 2.9-4.7 3.6C38.1 113.1 8.5 123 6 123c-.9 0 .5 1.9 3.1 4.4 3.3 3 6.6 4.9 11 6.4 14.1 4.5 20.8 7.2 29.2 11.9 4.9 2.6 10.5 5.6 12.5 6.7 2 1 5.4 3.4 7.5 5.2 2 1.9 4.2 3.4 4.9 3.4.7 0 5 3.9 9.6 8.7 4.7 4.9 8.6 8.3 8.9 7.7.2-.6-1-5.8-2.8-11.5-1.7-5.7-3.3-12-3.6-14l-.5-3.6 6.7-.8c3.7-.4 6.4-.9 6.1-1.2-.2-.3-3.7-.2-7.5.2-8.5.8-8.4.3-4 15.2 1.6 5.8 2.9 10.6 2.7 10.8-.2.2-3.8-2.8-8.1-6.5-15.8-13.8-37.4-26.2-56.6-32.5l-5.3-1.7 10.2-3.9c11-4.2 25.3-11.3 34.6-17.5 3.2-2.1 6.1-4.1 6.4-4.4.3-.3 3.2-2.7 6.5-5.2 3.4-2.5 6.7-5.3 7.5-6.3.7-.9 2.1-2 3.1-2.5 1.6-.9 1.6-.6.4 4.3-.7 2.8-2 7.7-2.9 10.7-2.4 8.3-2.2 9 2.2 9 6.4 0 21.6-3.7 28.3-6.8 11.3-5.2 19.8-16.6 19.9-26.4 0-2.6.5-5 1-5.3.6-.3 1 .1 1 1s.6 1.5 1.3 1.2c2-.7 4.4 1.1 6.1 4.4 1.8 3.6 2.3 19.4.6 20.4-.5.3-1 1-1 1.6 0 .5.5.9 1 .9.6 0 1-.7 1-1.7 0-1.5.1-1.5 1.8 0 1 1 2.6 1.7 3.5 1.7.9 0 1.9.4 2.2 1 .3.6 2.4 1 4.5 1s4.2-.4 4.5-1c1-1.6 3.4-1.2 5.2 1 1.3 1.4 1.9 1.6 2.5.7 1.1-1.8 1-2.9-.4-2.1-.7.5-.8.3-.4-.5.5-.7 1.1-1 1.4-.6.4.3 1.2-.9 1.9-2.7l1.3-3.3-.6 3.4c-3.5 19.6-26.2 33.4-67.3 40.7l-7.6 1.3 7.8-.5c11.3-.8 29-5.4 40-10.3 7.9-3.6 12.3-6.7 19.3-13.7 5.7-5.6 8.7-13 9.8-23.6.7-6.2-.1-9.9-1.5-7.6-1.3 1.9-1.2-.8 0-3.1.7-1.3.3-3.6-1.6-8.2-1.4-3.5-3.1-7.1-3.7-7.9-.6-.8-2-3.1-2.9-5-3.2-6.5-9.5-14.2-19.9-24.4-22.9-22.4-37-31.3-56.3-35.4-2.7-.6-6.2-1.3-7.7-1.6-1.6-.4-2.8-.2-2.8.3z"></path>
  </symbol>
</defs>
</svg>